<?xml version="1.0" encoding="utf-8"?>
<!-- Generator: Adobe Illustrator 21.1.0, SVG Export Plug-In . SVG Version: 6.00 Build 0)  -->
<svg version="1.1" id="圖層_1" xmlns="http://www.w3.org/2000/svg" xmlns:xlink="http://www.w3.org/1999/xlink" x="0px" y="0px"
	 viewBox="0 0 250 52.8" style="enable-background:new 0 0 250 52.8;" xml:space="preserve">
<style type="text/css">
	.st0{fill:#EB503C;}
	.st1{fill:#EC8E26;}
	.st2{fill:#C3AF96;}
</style>
<g>
	<path class="st0" d="M51.3,30C51.3,30,51.3,30,51.3,30c0-0.1,0-0.2,0-0.3c0,0,0,0,0-0.1c0-0.9-0.7-1.8-1.7-1.9c-0.3,0-0.5,0-0.8,0
		H24.7c-1.1,0-2,0.9-2,2s0.9,2,2,2h22.1c-2.6,9.3-11.1,15.9-21,15.9C13.8,47.7,4,37.9,4,25.8C4,13.8,13.8,4,25.8,4
		c8.1,0,15.5,4.4,19.3,11.5c0.5,1,1.7,1.3,2.7,0.8c1-0.5,1.3-1.7,0.8-2.7C44.1,5.2,35.3,0,25.8,0C11.6,0,0,11.6,0,25.8
		s11.6,25.8,25.8,25.8c12.6,0,23.3-9,25.4-21.4C51.3,30.2,51.3,30.1,51.3,30C51.3,30,51.3,30,51.3,30z"/>
	<path class="st0" d="M212.3,29.7c0-0.9-0.7-1.8-1.7-1.9c-0.3,0-0.5,0-0.8,0h-24.2c-1.1,0-2,0.9-2,2s0.9,2,2,2h22.1
		c-2.6,9.3-11.1,15.9-21,15.9c-12.1,0-21.9-9.8-21.9-21.9C165,13.8,174.8,4,186.9,4c8.1,0,15.5,4.4,19.3,11.5c0.5,1,1.7,1.3,2.7,0.8
		c1-0.5,1.3-1.7,0.8-2.7C205.1,5.2,196.4,0,186.9,0C172.6,0,161,11.6,161,25.8s11.6,25.8,25.8,25.8c12.6,0,23.3-9,25.4-21.4
		c0-0.1,0-0.1,0-0.2c0,0,0,0,0,0c0,0,0,0,0,0C212.3,29.9,212.3,29.9,212.3,29.7C212.3,29.8,212.3,29.7,212.3,29.7z"/>
	<path class="st1" d="M108.2,32.6C107.5,23.3,99.8,16,90.4,16c-9.8,0-17.8,8-17.8,17.8s8,17.8,17.8,17.8c5.6,0,10.6-2.6,13.8-6.6
		v4.7c0,1.1,0.9,2,2,2c1.1,0,2-0.9,2-2V33C108.2,32.8,108.2,32.7,108.2,32.6z M90.4,47.7c-7.6,0-13.8-6.2-13.8-13.8S82.8,20,90.4,20
		c7.6,0,13.8,6.2,13.8,13.8S98.1,47.7,90.4,47.7z"/>
	<path class="st1" d="M74.9,15.8c-5.6,0-10.7,2.6-13.9,6.7V18c0-1.1-0.9-2-2-2s-2,0.9-2,2v31.7c0,1.1,0.9,2,2,2s2-0.9,2-2V33.7
		c0-7.7,6.3-13.9,13.9-13.9c1.1,0,2-0.9,2-2S76,15.8,74.9,15.8z"/>
	<path class="st1" d="M128.2,17.2c-5.6,0-10.6,2.6-13.8,6.6V3.3c0-1.1-0.9-2-2-2c-1.1,0-2,0.9-2,2V35c0,9.8,8,17.8,17.8,17.8
		S146,44.8,146,35S138,17.2,128.2,17.2z M128.2,48.9c-7.6,0-13.8-6.2-13.8-13.8s6.2-13.8,13.8-13.8S142,27.4,142,35
		S135.8,48.9,128.2,48.9z"/>
	<path class="st2" d="M163,50.6l-2.8-3.3c0.1-0.4,0.2-0.9,0.2-1.3c0-1.2-0.4-2.4-1.1-3.4c-0.2-0.3-0.6-0.3-0.8-0.1
		c-0.3,0.2-0.3,0.6-0.1,0.8c0.6,0.8,0.9,1.7,0.9,2.7c0,0,0,0.1,0,0.1l-3-3.6c-0.2-0.2-0.6-0.3-0.8-0.1c-0.2,0.2-0.3,0.6-0.1,0.8
		l3.7,4.3c-0.6,1.7-2.3,2.9-4.2,2.9c-2.5,0-4.5-2-4.5-4.5c0-2.2,1.2-3.4,4.7-4.6c1.5-0.5,3-1.2,3-3.1c0-1.7-1.4-3.1-3.1-3.1
		c-1.7,0-3.1,1.4-3.1,3.1c0,0.7,0.2,1.3,0.6,1.9c0.2,0.3,0.6,0.3,0.8,0.1c0.3-0.2,0.3-0.6,0.1-0.8c-0.2-0.3-0.4-0.7-0.4-1.2
		c0-1.1,0.9-2,2-2c1.1,0,2,0.9,2,2c0,0.9-0.3,1.4-2.1,2c0,0,0,0,0,0c0,0,0,0,0,0c-3.3,1.1-5.5,2.5-5.5,5.7c0,3.2,2.6,5.7,5.7,5.7
		c2.2,0,4.1-1.3,5.1-3.1l2.4,2.8c0.1,0.1,0.3,0.2,0.5,0.2c0.1,0,0.3,0,0.4-0.1C163.2,51.2,163.2,50.8,163,50.6z"/>
	<path class="st1" d="M229.5,43.1c-0.2-0.5-0.1-1.1,0.2-1.5l-1.1-2.3c-1.2-0.2-3.2-0.5-3.4-0.9l-3.9-7.9c-0.3-0.6-0.3-1.3,0.4-1.6
		l0.4-0.2l4.1,8.2c0.1,0.2,0.4,0.2,0.7,0.1c0.3-0.2,0.5-0.4,0.4-0.6l-4.1-8.2l1-0.5l4.1,8.2c0.1,0.2,0.4,0.2,0.7,0.1
		c0.3-0.2,0.5-0.4,0.4-0.6l-4.1-8.2l0.2-0.1c0.7-0.3,1.5-0.1,1.8,0.5l3.9,7.9c0.2,0.4-0.6,2.1-1.1,3.2l1.2,2.3
		c0.5-0.1,1.1,0.2,1.3,0.7l4.6,9.3c2-0.6,3.9-1.6,5.6-2.8l-4.5-9c-0.2-0.5-0.1-1.1,0.2-1.5l-1.7-3.3c-1.7,0.2-3.9-1.4-5.1-3.9
		c-1.5-3-1.2-6.1,0.7-7c1.8-0.9,4.5,0.7,6,3.7c1.3,2.5,1.2,5.2,0,6.5l1.7,3.3c0.5-0.1,1.1,0.2,1.3,0.7l4.1,8.2
		c2.8-3.1,4.5-7.3,4.5-11.8c0-9.8-8-17.8-17.8-17.8c-9.8,0-17.8,8-17.8,17.8s8,17.8,17.8,17.8c0.5,0,1,0,1.5-0.1L229.5,43.1z"/>
	<g>
		<path d="M104.8,51.6"/>
	</g>
</g>
</svg>
